<mxfile host="app.diagrams.net" agent="Mozilla/5.0 (Windows NT 10.0; Win64; x64) AppleWebKit/537.36 (KHTML, like Gecko) Chrome/131.0.0.0 Safari/537.36" version="24.9.0">
  <diagram id="R2lEEEUBdFMjLlhIrx00" name="Page-1">
    <mxGraphModel dx="1050" dy="569" grid="1" gridSize="10" guides="1" tooltips="1" connect="1" arrows="1" fold="1" page="1" pageScale="1" pageWidth="850" pageHeight="1100" math="0" shadow="0" extFonts="Permanent Marker^https://fonts.googleapis.com/css?family=Permanent+Marker">
      <root>
        <mxCell id="0" />
        <mxCell id="1" parent="0" />
        <mxCell id="KhVc4bf-R0K-FzSo-OOB-1" value="" style="rounded=0;whiteSpace=wrap;html=1;fontFamily=Architects Daughter;fontSource=https%3A%2F%2Ffonts.googleapis.com%2Fcss%3Ffamily%3DArchitects%2BDaughter;" vertex="1" parent="1">
          <mxGeometry x="109" y="60" width="731" height="60" as="geometry" />
        </mxCell>
        <mxCell id="KhVc4bf-R0K-FzSo-OOB-2" value="" style="endArrow=none;html=1;rounded=0;fontFamily=Architects Daughter;fontSource=https%3A%2F%2Ffonts.googleapis.com%2Fcss%3Ffamily%3DArchitects%2BDaughter;" edge="1" parent="1">
          <mxGeometry width="50" height="50" relative="1" as="geometry">
            <mxPoint x="180" y="120" as="sourcePoint" />
            <mxPoint x="180" y="60" as="targetPoint" />
          </mxGeometry>
        </mxCell>
        <mxCell id="KhVc4bf-R0K-FzSo-OOB-3" value="&lt;font style=&quot;font-size: 18px;&quot;&gt;&lt;b style=&quot;font-size: 18px;&quot;&gt;Empolyee&lt;/b&gt;&lt;/font&gt;" style="text;html=1;align=center;verticalAlign=middle;resizable=0;points=[];autosize=1;strokeColor=none;fillColor=none;fontFamily=Architects Daughter;fontSource=https%3A%2F%2Ffonts.googleapis.com%2Fcss%3Ffamily%3DArchitects%2BDaughter;fontSize=18;" vertex="1" parent="1">
          <mxGeometry x="100" y="21" width="100" height="40" as="geometry" />
        </mxCell>
        <mxCell id="KhVc4bf-R0K-FzSo-OOB-4" value="&lt;font style=&quot;font-size: 17px;&quot;&gt;&lt;b&gt;Emp_id&lt;/b&gt;&lt;/font&gt;" style="text;html=1;align=center;verticalAlign=middle;resizable=0;points=[];autosize=1;strokeColor=none;fillColor=none;fontStyle=4;fontFamily=Architects Daughter;fontSource=https%3A%2F%2Ffonts.googleapis.com%2Fcss%3Ffamily%3DArchitects%2BDaughter;" vertex="1" parent="1">
          <mxGeometry x="105" y="75" width="80" height="30" as="geometry" />
        </mxCell>
        <mxCell id="KhVc4bf-R0K-FzSo-OOB-5" value="&lt;font style=&quot;font-size: 17px;&quot;&gt;&lt;b&gt;Dbirth&lt;/b&gt;&lt;/font&gt;" style="text;html=1;align=center;verticalAlign=middle;resizable=0;points=[];autosize=1;strokeColor=none;fillColor=none;fontFamily=Architects Daughter;fontSource=https%3A%2F%2Ffonts.googleapis.com%2Fcss%3Ffamily%3DArchitects%2BDaughter;" vertex="1" parent="1">
          <mxGeometry x="179" y="75" width="70" height="30" as="geometry" />
        </mxCell>
        <mxCell id="KhVc4bf-R0K-FzSo-OOB-6" value="" style="endArrow=none;html=1;rounded=0;fontFamily=Architects Daughter;fontSource=https%3A%2F%2Ffonts.googleapis.com%2Fcss%3Ffamily%3DArchitects%2BDaughter;" edge="1" parent="1">
          <mxGeometry width="50" height="50" relative="1" as="geometry">
            <mxPoint x="250" y="120" as="sourcePoint" />
            <mxPoint x="250" y="60" as="targetPoint" />
          </mxGeometry>
        </mxCell>
        <mxCell id="KhVc4bf-R0K-FzSo-OOB-7" value="&lt;font style=&quot;font-size: 17px;&quot;&gt;&lt;b&gt;Lname&lt;/b&gt;&lt;/font&gt;" style="text;html=1;align=center;verticalAlign=middle;resizable=0;points=[];autosize=1;strokeColor=none;fillColor=none;fontFamily=Architects Daughter;fontSource=https%3A%2F%2Ffonts.googleapis.com%2Fcss%3Ffamily%3DArchitects%2BDaughter;" vertex="1" parent="1">
          <mxGeometry x="250" y="75" width="70" height="30" as="geometry" />
        </mxCell>
        <mxCell id="KhVc4bf-R0K-FzSo-OOB-8" value="&lt;span style=&quot;font-size: 17px;&quot;&gt;&lt;b&gt;Fname&lt;/b&gt;&lt;/span&gt;" style="text;html=1;align=center;verticalAlign=middle;resizable=0;points=[];autosize=1;strokeColor=none;fillColor=none;fontFamily=Architects Daughter;fontSource=https%3A%2F%2Ffonts.googleapis.com%2Fcss%3Ffamily%3DArchitects%2BDaughter;" vertex="1" parent="1">
          <mxGeometry x="320" y="76" width="70" height="30" as="geometry" />
        </mxCell>
        <mxCell id="KhVc4bf-R0K-FzSo-OOB-9" value="" style="endArrow=none;html=1;rounded=0;fontFamily=Architects Daughter;fontSource=https%3A%2F%2Ffonts.googleapis.com%2Fcss%3Ffamily%3DArchitects%2BDaughter;" edge="1" parent="1">
          <mxGeometry width="50" height="50" relative="1" as="geometry">
            <mxPoint x="317" y="120" as="sourcePoint" />
            <mxPoint x="317" y="60" as="targetPoint" />
          </mxGeometry>
        </mxCell>
        <mxCell id="KhVc4bf-R0K-FzSo-OOB-10" value="" style="endArrow=none;dashed=1;html=1;dashPattern=1 3;strokeWidth=2;rounded=0;entryX=0.919;entryY=0.949;entryDx=0;entryDy=0;entryPerimeter=0;" edge="1" parent="1">
          <mxGeometry width="50" height="50" relative="1" as="geometry">
            <mxPoint x="531.09" y="104" as="sourcePoint" />
            <mxPoint x="531.09" y="104" as="targetPoint" />
          </mxGeometry>
        </mxCell>
        <mxCell id="KhVc4bf-R0K-FzSo-OOB-11" value="" style="endArrow=none;html=1;rounded=0;fontFamily=Architects Daughter;fontSource=https%3A%2F%2Ffonts.googleapis.com%2Fcss%3Ffamily%3DArchitects%2BDaughter;" edge="1" parent="1">
          <mxGeometry width="50" height="50" relative="1" as="geometry">
            <mxPoint x="394" y="120" as="sourcePoint" />
            <mxPoint x="394" y="60" as="targetPoint" />
          </mxGeometry>
        </mxCell>
        <mxCell id="KhVc4bf-R0K-FzSo-OOB-12" value="&lt;span style=&quot;font-size: 17px;&quot;&gt;&lt;b&gt;address&lt;/b&gt;&lt;/span&gt;" style="text;html=1;align=center;verticalAlign=middle;resizable=0;points=[];autosize=1;strokeColor=none;fillColor=none;fontFamily=Architects Daughter;fontSource=https%3A%2F%2Ffonts.googleapis.com%2Fcss%3Ffamily%3DArchitects%2BDaughter;" vertex="1" parent="1">
          <mxGeometry x="394" y="76" width="90" height="30" as="geometry" />
        </mxCell>
        <mxCell id="KhVc4bf-R0K-FzSo-OOB-13" value="" style="endArrow=none;html=1;rounded=0;fontFamily=Architects Daughter;fontSource=https%3A%2F%2Ffonts.googleapis.com%2Fcss%3Ffamily%3DArchitects%2BDaughter;" edge="1" parent="1">
          <mxGeometry width="50" height="50" relative="1" as="geometry">
            <mxPoint x="486" y="120" as="sourcePoint" />
            <mxPoint x="486" y="60" as="targetPoint" />
          </mxGeometry>
        </mxCell>
        <mxCell id="KhVc4bf-R0K-FzSo-OOB-14" value="&lt;font style=&quot;font-size: 17px;&quot;&gt;&lt;b&gt;Salary&lt;/b&gt;&lt;/font&gt;" style="text;html=1;align=center;verticalAlign=middle;resizable=0;points=[];autosize=1;strokeColor=none;fillColor=none;fontFamily=Architects Daughter;fontSource=https%3A%2F%2Ffonts.googleapis.com%2Fcss%3Ffamily%3DArchitects%2BDaughter;" vertex="1" parent="1">
          <mxGeometry x="485" y="75" width="70" height="30" as="geometry" />
        </mxCell>
        <mxCell id="KhVc4bf-R0K-FzSo-OOB-17" value="" style="endArrow=none;html=1;rounded=0;fontFamily=Architects Daughter;fontSource=https%3A%2F%2Ffonts.googleapis.com%2Fcss%3Ffamily%3DArchitects%2BDaughter;" edge="1" parent="1">
          <mxGeometry width="50" height="50" relative="1" as="geometry">
            <mxPoint x="554" y="120" as="sourcePoint" />
            <mxPoint x="554" y="60" as="targetPoint" />
          </mxGeometry>
        </mxCell>
        <mxCell id="KhVc4bf-R0K-FzSo-OOB-18" value="&lt;font style=&quot;font-size: 17px;&quot;&gt;&lt;b&gt;Email&lt;/b&gt;&lt;/font&gt;" style="text;html=1;align=center;verticalAlign=middle;resizable=0;points=[];autosize=1;strokeColor=none;fillColor=none;fontFamily=Architects Daughter;fontSource=https%3A%2F%2Ffonts.googleapis.com%2Fcss%3Ffamily%3DArchitects%2BDaughter;" vertex="1" parent="1">
          <mxGeometry x="548" y="75" width="60" height="30" as="geometry" />
        </mxCell>
        <mxCell id="KhVc4bf-R0K-FzSo-OOB-19" value="&lt;font style=&quot;font-size: 17px;&quot;&gt;&lt;b&gt;Pnumber&lt;/b&gt;&lt;/font&gt;" style="text;html=1;align=center;verticalAlign=middle;resizable=0;points=[];autosize=1;strokeColor=none;fillColor=none;fontFamily=Architects Daughter;fontSource=https%3A%2F%2Ffonts.googleapis.com%2Fcss%3Ffamily%3DArchitects%2BDaughter;" vertex="1" parent="1">
          <mxGeometry x="602" y="75" width="90" height="30" as="geometry" />
        </mxCell>
        <mxCell id="KhVc4bf-R0K-FzSo-OOB-20" value="" style="endArrow=none;html=1;rounded=0;fontFamily=Architects Daughter;fontSource=https%3A%2F%2Ffonts.googleapis.com%2Fcss%3Ffamily%3DArchitects%2BDaughter;" edge="1" parent="1">
          <mxGeometry width="50" height="50" relative="1" as="geometry">
            <mxPoint x="606" y="120" as="sourcePoint" />
            <mxPoint x="606" y="60" as="targetPoint" />
          </mxGeometry>
        </mxCell>
        <mxCell id="KhVc4bf-R0K-FzSo-OOB-21" value="" style="endArrow=none;html=1;rounded=0;fontFamily=Architects Daughter;fontSource=https%3A%2F%2Ffonts.googleapis.com%2Fcss%3Ffamily%3DArchitects%2BDaughter;" edge="1" parent="1">
          <mxGeometry width="50" height="50" relative="1" as="geometry">
            <mxPoint x="690" y="120" as="sourcePoint" />
            <mxPoint x="690" y="60" as="targetPoint" />
          </mxGeometry>
        </mxCell>
        <mxCell id="KhVc4bf-R0K-FzSo-OOB-22" value="&lt;font style=&quot;font-size: 17px;&quot;&gt;&lt;b&gt;Bonus&lt;/b&gt;&lt;/font&gt;" style="text;html=1;align=center;verticalAlign=middle;resizable=0;points=[];autosize=1;strokeColor=none;fillColor=none;fontFamily=Architects Daughter;fontSource=https%3A%2F%2Ffonts.googleapis.com%2Fcss%3Ffamily%3DArchitects%2BDaughter;" vertex="1" parent="1">
          <mxGeometry x="683" y="75" width="70" height="30" as="geometry" />
        </mxCell>
        <mxCell id="KhVc4bf-R0K-FzSo-OOB-23" value="" style="endArrow=none;html=1;rounded=0;fontFamily=Architects Daughter;fontSource=https%3A%2F%2Ffonts.googleapis.com%2Fcss%3Ffamily%3DArchitects%2BDaughter;" edge="1" parent="1">
          <mxGeometry width="50" height="50" relative="1" as="geometry">
            <mxPoint x="747" y="120" as="sourcePoint" />
            <mxPoint x="747" y="60" as="targetPoint" />
          </mxGeometry>
        </mxCell>
        <mxCell id="KhVc4bf-R0K-FzSo-OOB-24" value="&lt;font style=&quot;font-size: 17px;&quot;&gt;&lt;b&gt;Super&lt;/b&gt;&lt;/font&gt;" style="text;html=1;align=center;verticalAlign=middle;resizable=0;points=[];autosize=1;strokeColor=none;fillColor=none;fontFamily=Architects Daughter;fontSource=https%3A%2F%2Ffonts.googleapis.com%2Fcss%3Ffamily%3DArchitects%2BDaughter;" vertex="1" parent="1">
          <mxGeometry x="755" y="75" width="70" height="30" as="geometry" />
        </mxCell>
        <mxCell id="KhVc4bf-R0K-FzSo-OOB-25" value="" style="rounded=0;whiteSpace=wrap;html=1;fontFamily=Architects Daughter;fontSource=https%3A%2F%2Ffonts.googleapis.com%2Fcss%3Ffamily%3DArchitects%2BDaughter;" vertex="1" parent="1">
          <mxGeometry x="109" y="178" width="211" height="60" as="geometry" />
        </mxCell>
        <mxCell id="KhVc4bf-R0K-FzSo-OOB-26" value="" style="endArrow=none;html=1;rounded=0;fontFamily=Architects Daughter;fontSource=https%3A%2F%2Ffonts.googleapis.com%2Fcss%3Ffamily%3DArchitects%2BDaughter;" edge="1" parent="1">
          <mxGeometry width="50" height="50" relative="1" as="geometry">
            <mxPoint x="180" y="238" as="sourcePoint" />
            <mxPoint x="180" y="178" as="targetPoint" />
          </mxGeometry>
        </mxCell>
        <mxCell id="KhVc4bf-R0K-FzSo-OOB-27" value="&lt;font style=&quot;font-size: 18px;&quot;&gt;&lt;b style=&quot;font-size: 18px;&quot;&gt;User&lt;/b&gt;&lt;/font&gt;" style="text;html=1;align=center;verticalAlign=middle;resizable=0;points=[];autosize=1;strokeColor=none;fillColor=none;fontFamily=Architects Daughter;fontSource=https%3A%2F%2Ffonts.googleapis.com%2Fcss%3Ffamily%3DArchitects%2BDaughter;fontSize=18;" vertex="1" parent="1">
          <mxGeometry x="104" y="139" width="60" height="40" as="geometry" />
        </mxCell>
        <mxCell id="KhVc4bf-R0K-FzSo-OOB-28" value="&lt;font style=&quot;font-size: 17px;&quot;&gt;&lt;b&gt;SSN&lt;/b&gt;&lt;/font&gt;" style="text;html=1;align=center;verticalAlign=middle;resizable=0;points=[];autosize=1;strokeColor=none;fillColor=none;fontStyle=4;fontFamily=Architects Daughter;fontSource=https%3A%2F%2Ffonts.googleapis.com%2Fcss%3Ffamily%3DArchitects%2BDaughter;" vertex="1" parent="1">
          <mxGeometry x="115" y="193" width="60" height="30" as="geometry" />
        </mxCell>
        <mxCell id="KhVc4bf-R0K-FzSo-OOB-29" value="&lt;font style=&quot;font-size: 17px;&quot;&gt;&lt;b&gt;Name&lt;/b&gt;&lt;/font&gt;" style="text;html=1;align=center;verticalAlign=middle;resizable=0;points=[];autosize=1;strokeColor=none;fillColor=none;fontFamily=Architects Daughter;fontSource=https%3A%2F%2Ffonts.googleapis.com%2Fcss%3Ffamily%3DArchitects%2BDaughter;" vertex="1" parent="1">
          <mxGeometry x="179" y="193" width="70" height="30" as="geometry" />
        </mxCell>
        <mxCell id="KhVc4bf-R0K-FzSo-OOB-30" value="" style="endArrow=none;html=1;rounded=0;fontFamily=Architects Daughter;fontSource=https%3A%2F%2Ffonts.googleapis.com%2Fcss%3Ffamily%3DArchitects%2BDaughter;" edge="1" parent="1">
          <mxGeometry width="50" height="50" relative="1" as="geometry">
            <mxPoint x="250" y="238" as="sourcePoint" />
            <mxPoint x="250" y="178" as="targetPoint" />
          </mxGeometry>
        </mxCell>
        <mxCell id="KhVc4bf-R0K-FzSo-OOB-31" value="&lt;font style=&quot;font-size: 17px;&quot;&gt;&lt;b&gt;Email&lt;/b&gt;&lt;/font&gt;" style="text;html=1;align=center;verticalAlign=middle;resizable=0;points=[];autosize=1;strokeColor=none;fillColor=none;fontFamily=Architects Daughter;fontSource=https%3A%2F%2Ffonts.googleapis.com%2Fcss%3Ffamily%3DArchitects%2BDaughter;" vertex="1" parent="1">
          <mxGeometry x="255" y="193" width="60" height="30" as="geometry" />
        </mxCell>
        <mxCell id="KhVc4bf-R0K-FzSo-OOB-59" style="edgeStyle=orthogonalEdgeStyle;rounded=0;orthogonalLoop=1;jettySize=auto;html=1;exitX=0.25;exitY=1;exitDx=0;exitDy=0;entryX=0;entryY=0.5;entryDx=0;entryDy=0;" edge="1" parent="1" source="KhVc4bf-R0K-FzSo-OOB-49" target="KhVc4bf-R0K-FzSo-OOB-25">
          <mxGeometry relative="1" as="geometry">
            <Array as="points">
              <mxPoint x="144" y="381" />
              <mxPoint x="80" y="381" />
              <mxPoint x="80" y="208" />
            </Array>
          </mxGeometry>
        </mxCell>
        <mxCell id="KhVc4bf-R0K-FzSo-OOB-49" value="" style="rounded=0;whiteSpace=wrap;html=1;fontFamily=Architects Daughter;fontSource=https%3A%2F%2Ffonts.googleapis.com%2Fcss%3Ffamily%3DArchitects%2BDaughter;" vertex="1" parent="1">
          <mxGeometry x="109" y="301" width="141" height="60" as="geometry" />
        </mxCell>
        <mxCell id="KhVc4bf-R0K-FzSo-OOB-50" value="" style="endArrow=none;html=1;rounded=0;fontFamily=Architects Daughter;fontSource=https%3A%2F%2Ffonts.googleapis.com%2Fcss%3Ffamily%3DArchitects%2BDaughter;" edge="1" parent="1">
          <mxGeometry width="50" height="50" relative="1" as="geometry">
            <mxPoint x="180" y="361" as="sourcePoint" />
            <mxPoint x="180" y="301" as="targetPoint" />
          </mxGeometry>
        </mxCell>
        <mxCell id="KhVc4bf-R0K-FzSo-OOB-51" value="&lt;font style=&quot;font-size: 18px;&quot;&gt;&lt;b style=&quot;font-size: 18px;&quot;&gt;User_Phones&lt;/b&gt;&lt;/font&gt;" style="text;html=1;align=center;verticalAlign=middle;resizable=0;points=[];autosize=1;strokeColor=none;fillColor=none;fontFamily=Architects Daughter;fontSource=https%3A%2F%2Ffonts.googleapis.com%2Fcss%3Ffamily%3DArchitects%2BDaughter;fontSize=18;" vertex="1" parent="1">
          <mxGeometry x="103" y="262" width="130" height="40" as="geometry" />
        </mxCell>
        <mxCell id="KhVc4bf-R0K-FzSo-OOB-52" value="&lt;font style=&quot;font-size: 17px;&quot;&gt;&lt;b&gt;ESSN&lt;/b&gt;&lt;/font&gt;" style="text;html=1;align=center;verticalAlign=middle;resizable=0;points=[];autosize=1;strokeColor=none;fillColor=none;fontStyle=0;fontFamily=Architects Daughter;fontSource=https%3A%2F%2Ffonts.googleapis.com%2Fcss%3Ffamily%3DArchitects%2BDaughter;" vertex="1" parent="1">
          <mxGeometry x="110" y="316" width="70" height="30" as="geometry" />
        </mxCell>
        <mxCell id="KhVc4bf-R0K-FzSo-OOB-53" value="&lt;font style=&quot;font-size: 17px;&quot;&gt;&lt;b&gt;Phone&lt;/b&gt;&lt;/font&gt;" style="text;html=1;align=center;verticalAlign=middle;resizable=0;points=[];autosize=1;strokeColor=none;fillColor=none;fontFamily=Architects Daughter;fontSource=https%3A%2F%2Ffonts.googleapis.com%2Fcss%3Ffamily%3DArchitects%2BDaughter;" vertex="1" parent="1">
          <mxGeometry x="179" y="316" width="70" height="30" as="geometry" />
        </mxCell>
        <mxCell id="KhVc4bf-R0K-FzSo-OOB-56" value="" style="endArrow=none;dashed=1;html=1;dashPattern=1 3;strokeWidth=2;rounded=0;" edge="1" parent="1">
          <mxGeometry width="50" height="50" relative="1" as="geometry">
            <mxPoint x="121" y="343" as="sourcePoint" />
            <mxPoint x="171" y="343" as="targetPoint" />
          </mxGeometry>
        </mxCell>
        <mxCell id="KhVc4bf-R0K-FzSo-OOB-57" value="" style="endArrow=none;html=1;rounded=0;" edge="1" parent="1">
          <mxGeometry width="50" height="50" relative="1" as="geometry">
            <mxPoint x="123" y="349" as="sourcePoint" />
            <mxPoint x="233" y="349" as="targetPoint" />
          </mxGeometry>
        </mxCell>
        <mxCell id="KhVc4bf-R0K-FzSo-OOB-60" value="" style="rounded=0;whiteSpace=wrap;html=1;fontFamily=Architects Daughter;fontSource=https%3A%2F%2Ffonts.googleapis.com%2Fcss%3Ffamily%3DArchitects%2BDaughter;" vertex="1" parent="1">
          <mxGeometry x="109" y="439" width="211" height="60" as="geometry" />
        </mxCell>
        <mxCell id="KhVc4bf-R0K-FzSo-OOB-61" value="" style="endArrow=none;html=1;rounded=0;fontFamily=Architects Daughter;fontSource=https%3A%2F%2Ffonts.googleapis.com%2Fcss%3Ffamily%3DArchitects%2BDaughter;" edge="1" parent="1">
          <mxGeometry width="50" height="50" relative="1" as="geometry">
            <mxPoint x="202" y="499" as="sourcePoint" />
            <mxPoint x="202" y="439" as="targetPoint" />
          </mxGeometry>
        </mxCell>
        <mxCell id="KhVc4bf-R0K-FzSo-OOB-62" value="&lt;font style=&quot;font-size: 17px;&quot;&gt;&lt;b&gt;FloorNum&lt;/b&gt;&lt;/font&gt;" style="text;html=1;align=center;verticalAlign=middle;resizable=0;points=[];autosize=1;strokeColor=none;fillColor=none;fontStyle=4;fontFamily=Architects Daughter;fontSource=https%3A%2F%2Ffonts.googleapis.com%2Fcss%3Ffamily%3DArchitects%2BDaughter;" vertex="1" parent="1">
          <mxGeometry x="101" y="454" width="100" height="30" as="geometry" />
        </mxCell>
        <mxCell id="KhVc4bf-R0K-FzSo-OOB-63" value="&lt;font style=&quot;font-size: 17px;&quot;&gt;&lt;b&gt;BlockNum&lt;/b&gt;&lt;/font&gt;" style="text;html=1;align=center;verticalAlign=middle;resizable=0;points=[];autosize=1;strokeColor=none;fillColor=none;fontFamily=Architects Daughter;fontSource=https%3A%2F%2Ffonts.googleapis.com%2Fcss%3Ffamily%3DArchitects%2BDaughter;" vertex="1" parent="1">
          <mxGeometry x="213" y="454" width="100" height="30" as="geometry" />
        </mxCell>
        <mxCell id="KhVc4bf-R0K-FzSo-OOB-66" value="&lt;b&gt;Floor&lt;/b&gt;" style="text;html=1;align=center;verticalAlign=middle;resizable=0;points=[];autosize=1;strokeColor=none;fillColor=none;fontFamily=Architects Daughter;fontSource=https%3A%2F%2Ffonts.googleapis.com%2Fcss%3Ffamily%3DArchitects%2BDaughter;fontSize=18;" vertex="1" parent="1">
          <mxGeometry x="99" y="400" width="70" height="40" as="geometry" />
        </mxCell>
        <mxCell id="KhVc4bf-R0K-FzSo-OOB-67" value="" style="rounded=0;whiteSpace=wrap;html=1;fontFamily=Architects Daughter;fontSource=https%3A%2F%2Ffonts.googleapis.com%2Fcss%3Ffamily%3DArchitects%2BDaughter;" vertex="1" parent="1">
          <mxGeometry x="109" y="564" width="211" height="60" as="geometry" />
        </mxCell>
        <mxCell id="KhVc4bf-R0K-FzSo-OOB-68" value="" style="endArrow=none;html=1;rounded=0;fontFamily=Architects Daughter;fontSource=https%3A%2F%2Ffonts.googleapis.com%2Fcss%3Ffamily%3DArchitects%2BDaughter;" edge="1" parent="1">
          <mxGeometry width="50" height="50" relative="1" as="geometry">
            <mxPoint x="202" y="624" as="sourcePoint" />
            <mxPoint x="202" y="564" as="targetPoint" />
          </mxGeometry>
        </mxCell>
        <mxCell id="KhVc4bf-R0K-FzSo-OOB-69" value="&lt;span style=&quot;font-size: 17px;&quot;&gt;&lt;b&gt;Id&lt;/b&gt;&lt;/span&gt;" style="text;html=1;align=center;verticalAlign=middle;resizable=0;points=[];autosize=1;strokeColor=none;fillColor=none;fontStyle=4;fontFamily=Architects Daughter;fontSource=https%3A%2F%2Ffonts.googleapis.com%2Fcss%3Ffamily%3DArchitects%2BDaughter;" vertex="1" parent="1">
          <mxGeometry x="136" y="579" width="30" height="30" as="geometry" />
        </mxCell>
        <mxCell id="KhVc4bf-R0K-FzSo-OOB-70" value="&lt;font style=&quot;font-size: 17px;&quot;&gt;&lt;b&gt;Title&lt;/b&gt;&lt;/font&gt;" style="text;html=1;align=center;verticalAlign=middle;resizable=0;points=[];autosize=1;strokeColor=none;fillColor=none;fontFamily=Architects Daughter;fontSource=https%3A%2F%2Ffonts.googleapis.com%2Fcss%3Ffamily%3DArchitects%2BDaughter;" vertex="1" parent="1">
          <mxGeometry x="233" y="579" width="60" height="30" as="geometry" />
        </mxCell>
        <mxCell id="KhVc4bf-R0K-FzSo-OOB-71" value="&lt;b&gt;Book&lt;/b&gt;" style="text;html=1;align=center;verticalAlign=middle;resizable=0;points=[];autosize=1;strokeColor=none;fillColor=none;fontFamily=Architects Daughter;fontSource=https%3A%2F%2Ffonts.googleapis.com%2Fcss%3Ffamily%3DArchitects%2BDaughter;fontSize=18;" vertex="1" parent="1">
          <mxGeometry x="99" y="525" width="70" height="40" as="geometry" />
        </mxCell>
        <mxCell id="KhVc4bf-R0K-FzSo-OOB-72" value="" style="rounded=0;whiteSpace=wrap;html=1;fontFamily=Architects Daughter;fontSource=https%3A%2F%2Ffonts.googleapis.com%2Fcss%3Ffamily%3DArchitects%2BDaughter;" vertex="1" parent="1">
          <mxGeometry x="109" y="689" width="211" height="60" as="geometry" />
        </mxCell>
        <mxCell id="KhVc4bf-R0K-FzSo-OOB-73" value="" style="endArrow=none;html=1;rounded=0;fontFamily=Architects Daughter;fontSource=https%3A%2F%2Ffonts.googleapis.com%2Fcss%3Ffamily%3DArchitects%2BDaughter;" edge="1" parent="1">
          <mxGeometry width="50" height="50" relative="1" as="geometry">
            <mxPoint x="202" y="749" as="sourcePoint" />
            <mxPoint x="202" y="689" as="targetPoint" />
          </mxGeometry>
        </mxCell>
        <mxCell id="KhVc4bf-R0K-FzSo-OOB-74" value="&lt;span style=&quot;font-size: 17px;&quot;&gt;&lt;b&gt;Id&lt;/b&gt;&lt;/span&gt;" style="text;html=1;align=center;verticalAlign=middle;resizable=0;points=[];autosize=1;strokeColor=none;fillColor=none;fontStyle=4;fontFamily=Architects Daughter;fontSource=https%3A%2F%2Ffonts.googleapis.com%2Fcss%3Ffamily%3DArchitects%2BDaughter;" vertex="1" parent="1">
          <mxGeometry x="136" y="704" width="30" height="30" as="geometry" />
        </mxCell>
        <mxCell id="KhVc4bf-R0K-FzSo-OOB-75" value="&lt;font style=&quot;font-size: 17px;&quot;&gt;&lt;b&gt;CatName&lt;/b&gt;&lt;/font&gt;" style="text;html=1;align=center;verticalAlign=middle;resizable=0;points=[];autosize=1;strokeColor=none;fillColor=none;fontFamily=Architects Daughter;fontSource=https%3A%2F%2Ffonts.googleapis.com%2Fcss%3Ffamily%3DArchitects%2BDaughter;" vertex="1" parent="1">
          <mxGeometry x="218" y="704" width="90" height="30" as="geometry" />
        </mxCell>
        <mxCell id="KhVc4bf-R0K-FzSo-OOB-76" value="&lt;b&gt;Category&lt;/b&gt;" style="text;html=1;align=center;verticalAlign=middle;resizable=0;points=[];autosize=1;strokeColor=none;fillColor=none;fontFamily=Architects Daughter;fontSource=https%3A%2F%2Ffonts.googleapis.com%2Fcss%3Ffamily%3DArchitects%2BDaughter;fontSize=18;" vertex="1" parent="1">
          <mxGeometry x="103" y="650" width="100" height="40" as="geometry" />
        </mxCell>
        <mxCell id="KhVc4bf-R0K-FzSo-OOB-77" value="" style="rounded=0;whiteSpace=wrap;html=1;fontFamily=Architects Daughter;fontSource=https%3A%2F%2Ffonts.googleapis.com%2Fcss%3Ffamily%3DArchitects%2BDaughter;" vertex="1" parent="1">
          <mxGeometry x="109" y="819" width="211" height="60" as="geometry" />
        </mxCell>
        <mxCell id="KhVc4bf-R0K-FzSo-OOB-78" value="" style="endArrow=none;html=1;rounded=0;fontFamily=Architects Daughter;fontSource=https%3A%2F%2Ffonts.googleapis.com%2Fcss%3Ffamily%3DArchitects%2BDaughter;" edge="1" parent="1">
          <mxGeometry width="50" height="50" relative="1" as="geometry">
            <mxPoint x="202" y="879" as="sourcePoint" />
            <mxPoint x="202" y="819" as="targetPoint" />
          </mxGeometry>
        </mxCell>
        <mxCell id="KhVc4bf-R0K-FzSo-OOB-79" value="&lt;span style=&quot;font-size: 17px;&quot;&gt;&lt;b&gt;Id&lt;/b&gt;&lt;/span&gt;" style="text;html=1;align=center;verticalAlign=middle;resizable=0;points=[];autosize=1;strokeColor=none;fillColor=none;fontStyle=4;fontFamily=Architects Daughter;fontSource=https%3A%2F%2Ffonts.googleapis.com%2Fcss%3Ffamily%3DArchitects%2BDaughter;" vertex="1" parent="1">
          <mxGeometry x="136" y="834" width="30" height="30" as="geometry" />
        </mxCell>
        <mxCell id="KhVc4bf-R0K-FzSo-OOB-80" value="&lt;font style=&quot;font-size: 17px;&quot;&gt;&lt;b&gt;Name&lt;/b&gt;&lt;/font&gt;" style="text;html=1;align=center;verticalAlign=middle;resizable=0;points=[];autosize=1;strokeColor=none;fillColor=none;fontFamily=Architects Daughter;fontSource=https%3A%2F%2Ffonts.googleapis.com%2Fcss%3Ffamily%3DArchitects%2BDaughter;" vertex="1" parent="1">
          <mxGeometry x="228" y="834" width="70" height="30" as="geometry" />
        </mxCell>
        <mxCell id="KhVc4bf-R0K-FzSo-OOB-81" value="&lt;b&gt;Publisher&lt;/b&gt;" style="text;html=1;align=center;verticalAlign=middle;resizable=0;points=[];autosize=1;strokeColor=none;fillColor=none;fontFamily=Architects Daughter;fontSource=https%3A%2F%2Ffonts.googleapis.com%2Fcss%3Ffamily%3DArchitects%2BDaughter;fontSize=18;" vertex="1" parent="1">
          <mxGeometry x="103" y="780" width="100" height="40" as="geometry" />
        </mxCell>
        <mxCell id="KhVc4bf-R0K-FzSo-OOB-82" value="" style="rounded=0;whiteSpace=wrap;html=1;fontFamily=Architects Daughter;fontSource=https%3A%2F%2Ffonts.googleapis.com%2Fcss%3Ffamily%3DArchitects%2BDaughter;" vertex="1" parent="1">
          <mxGeometry x="109" y="940" width="211" height="60" as="geometry" />
        </mxCell>
        <mxCell id="KhVc4bf-R0K-FzSo-OOB-83" value="" style="endArrow=none;html=1;rounded=0;fontFamily=Architects Daughter;fontSource=https%3A%2F%2Ffonts.googleapis.com%2Fcss%3Ffamily%3DArchitects%2BDaughter;" edge="1" parent="1">
          <mxGeometry width="50" height="50" relative="1" as="geometry">
            <mxPoint x="202" y="1000" as="sourcePoint" />
            <mxPoint x="202" y="940" as="targetPoint" />
          </mxGeometry>
        </mxCell>
        <mxCell id="KhVc4bf-R0K-FzSo-OOB-84" value="&lt;span style=&quot;font-size: 17px;&quot;&gt;&lt;b&gt;Id&lt;/b&gt;&lt;/span&gt;" style="text;html=1;align=center;verticalAlign=middle;resizable=0;points=[];autosize=1;strokeColor=none;fillColor=none;fontStyle=4;fontFamily=Architects Daughter;fontSource=https%3A%2F%2Ffonts.googleapis.com%2Fcss%3Ffamily%3DArchitects%2BDaughter;" vertex="1" parent="1">
          <mxGeometry x="136" y="955" width="30" height="30" as="geometry" />
        </mxCell>
        <mxCell id="KhVc4bf-R0K-FzSo-OOB-85" value="&lt;font style=&quot;font-size: 17px;&quot;&gt;&lt;b&gt;Name&lt;/b&gt;&lt;/font&gt;" style="text;html=1;align=center;verticalAlign=middle;resizable=0;points=[];autosize=1;strokeColor=none;fillColor=none;fontFamily=Architects Daughter;fontSource=https%3A%2F%2Ffonts.googleapis.com%2Fcss%3Ffamily%3DArchitects%2BDaughter;" vertex="1" parent="1">
          <mxGeometry x="228" y="955" width="70" height="30" as="geometry" />
        </mxCell>
        <mxCell id="KhVc4bf-R0K-FzSo-OOB-86" value="&lt;b&gt;Author&lt;/b&gt;" style="text;html=1;align=center;verticalAlign=middle;resizable=0;points=[];autosize=1;strokeColor=none;fillColor=none;fontFamily=Architects Daughter;fontSource=https%3A%2F%2Ffonts.googleapis.com%2Fcss%3Ffamily%3DArchitects%2BDaughter;fontSize=18;" vertex="1" parent="1">
          <mxGeometry x="106" y="901" width="80" height="40" as="geometry" />
        </mxCell>
        <mxCell id="KhVc4bf-R0K-FzSo-OOB-98" style="edgeStyle=orthogonalEdgeStyle;rounded=0;orthogonalLoop=1;jettySize=auto;html=1;exitX=0.75;exitY=1;exitDx=0;exitDy=0;entryX=0;entryY=0.5;entryDx=0;entryDy=0;" edge="1" parent="1" source="KhVc4bf-R0K-FzSo-OOB-87" target="KhVc4bf-R0K-FzSo-OOB-67">
          <mxGeometry relative="1" as="geometry" />
        </mxCell>
        <mxCell id="KhVc4bf-R0K-FzSo-OOB-87" value="" style="rounded=0;whiteSpace=wrap;html=1;fontFamily=Architects Daughter;fontSource=https%3A%2F%2Ffonts.googleapis.com%2Fcss%3Ffamily%3DArchitects%2BDaughter;" vertex="1" parent="1">
          <mxGeometry x="109" y="1063" width="211" height="60" as="geometry" />
        </mxCell>
        <mxCell id="KhVc4bf-R0K-FzSo-OOB-88" value="" style="endArrow=none;html=1;rounded=0;fontFamily=Architects Daughter;fontSource=https%3A%2F%2Ffonts.googleapis.com%2Fcss%3Ffamily%3DArchitects%2BDaughter;" edge="1" parent="1">
          <mxGeometry width="50" height="50" relative="1" as="geometry">
            <mxPoint x="202" y="1123" as="sourcePoint" />
            <mxPoint x="202" y="1063" as="targetPoint" />
          </mxGeometry>
        </mxCell>
        <mxCell id="KhVc4bf-R0K-FzSo-OOB-89" value="&lt;span style=&quot;font-size: 17px;&quot;&gt;&lt;b&gt;Code&lt;/b&gt;&lt;/span&gt;" style="text;html=1;align=center;verticalAlign=middle;resizable=0;points=[];autosize=1;strokeColor=none;fillColor=none;fontStyle=0;fontFamily=Architects Daughter;fontSource=https%3A%2F%2Ffonts.googleapis.com%2Fcss%3Ffamily%3DArchitects%2BDaughter;" vertex="1" parent="1">
          <mxGeometry x="121" y="1078" width="60" height="30" as="geometry" />
        </mxCell>
        <mxCell id="KhVc4bf-R0K-FzSo-OOB-90" value="&lt;font style=&quot;font-size: 17px;&quot;&gt;&lt;b&gt;BookID&lt;/b&gt;&lt;/font&gt;" style="text;html=1;align=center;verticalAlign=middle;resizable=0;points=[];autosize=1;strokeColor=none;fillColor=none;fontFamily=Architects Daughter;fontSource=https%3A%2F%2Ffonts.googleapis.com%2Fcss%3Ffamily%3DArchitects%2BDaughter;" vertex="1" parent="1">
          <mxGeometry x="220" y="1078" width="80" height="30" as="geometry" />
        </mxCell>
        <mxCell id="KhVc4bf-R0K-FzSo-OOB-91" value="&lt;b&gt;Shelf&lt;/b&gt;" style="text;html=1;align=center;verticalAlign=middle;resizable=0;points=[];autosize=1;strokeColor=none;fillColor=none;fontFamily=Architects Daughter;fontSource=https%3A%2F%2Ffonts.googleapis.com%2Fcss%3Ffamily%3DArchitects%2BDaughter;fontSize=18;" vertex="1" parent="1">
          <mxGeometry x="111" y="1024" width="70" height="40" as="geometry" />
        </mxCell>
        <mxCell id="KhVc4bf-R0K-FzSo-OOB-93" value="" style="endArrow=none;dashed=1;html=1;dashPattern=1 3;strokeWidth=2;rounded=0;" edge="1" parent="1">
          <mxGeometry width="50" height="50" relative="1" as="geometry">
            <mxPoint x="127.5" y="1105" as="sourcePoint" />
            <mxPoint x="176.5" y="1105" as="targetPoint" />
          </mxGeometry>
        </mxCell>
        <mxCell id="KhVc4bf-R0K-FzSo-OOB-95" value="" style="endArrow=none;dashed=1;html=1;dashPattern=1 3;strokeWidth=2;rounded=0;" edge="1" parent="1">
          <mxGeometry width="50" height="50" relative="1" as="geometry">
            <mxPoint x="227" y="1105.26" as="sourcePoint" />
            <mxPoint x="293" y="1105.26" as="targetPoint" />
          </mxGeometry>
        </mxCell>
        <mxCell id="KhVc4bf-R0K-FzSo-OOB-96" value="" style="endArrow=none;html=1;rounded=0;" edge="1" parent="1">
          <mxGeometry width="50" height="50" relative="1" as="geometry">
            <mxPoint x="124" y="1112" as="sourcePoint" />
            <mxPoint x="304" y="1112" as="targetPoint" />
          </mxGeometry>
        </mxCell>
      </root>
    </mxGraphModel>
  </diagram>
</mxfile>
